<svg width="497" height="141" viewBox="0 0 497 141" fill="none" xmlns="http://www.w3.org/2000/svg">
<path d="M171.449 70V18.4375H181.762V61.2109H192.367V70H171.449ZM195.297 70V18.4375H215.922V28.3984H205.785V38.4473H215.512V48.1445H205.785V59.9512H216.596V70H195.297ZM220.023 70V18.4375H235.844C238.48 18.4375 240.473 19.043 241.82 20.2539C243.168 21.4453 244.066 23.125 244.516 25.293C244.984 27.4414 245.219 29.9707 245.219 32.8809C245.219 35.6934 244.857 37.9395 244.135 39.6191C243.432 41.2988 242.094 42.4609 240.121 43.1055C241.742 43.4375 242.875 44.248 243.52 45.5371C244.184 46.8066 244.516 48.457 244.516 50.4883V70H234.35V49.8145C234.35 48.3105 234.037 47.3828 233.412 47.0312C232.807 46.6602 231.82 46.4746 230.453 46.4746V70H220.023ZM230.512 37.5391H233.002C234.428 37.5391 235.141 35.9863 235.141 32.8809C235.141 30.8691 234.984 29.5508 234.672 28.9258C234.359 28.3008 233.773 27.9883 232.914 27.9883H230.512V37.5391ZM253.041 70V28.3398H246.918V18.4375H269.477V28.3398H263.354V70H253.041ZM272.348 70V18.4375H288.168C290.805 18.4375 292.797 19.043 294.145 20.2539C295.492 21.4453 296.391 23.125 296.84 25.293C297.309 27.4414 297.543 29.9707 297.543 32.8809C297.543 35.6934 297.182 37.9395 296.459 39.6191C295.756 41.2988 294.418 42.4609 292.445 43.1055C294.066 43.4375 295.199 44.248 295.844 45.5371C296.508 46.8066 296.84 48.457 296.84 50.4883V70H286.674V49.8145C286.674 48.3105 286.361 47.3828 285.736 47.0312C285.131 46.6602 284.145 46.4746 282.777 46.4746V70H272.348ZM282.836 37.5391H285.326C286.752 37.5391 287.465 35.9863 287.465 32.8809C287.465 30.8691 287.309 29.5508 286.996 28.9258C286.684 28.3008 286.098 27.9883 285.238 27.9883H282.836V37.5391ZM313.246 70.4688C309.125 70.4688 305.971 69.2285 303.783 66.748C301.615 64.248 300.531 60.6445 300.531 55.9375V31.4453C300.531 27.0312 301.605 23.6816 303.754 21.3965C305.922 19.1113 309.086 17.9688 313.246 17.9688C317.406 17.9688 320.561 19.1113 322.709 21.3965C324.877 23.6816 325.961 27.0312 325.961 31.4453V55.9375C325.961 60.6445 324.867 64.248 322.68 66.748C320.512 69.2285 317.367 70.4688 313.246 70.4688ZM313.334 60.9766C314.896 60.9766 315.678 59.4629 315.678 56.4355V31.2695C315.678 28.7305 314.916 27.4609 313.393 27.4609C311.674 27.4609 310.814 28.7598 310.814 31.3574V56.4941C310.814 58.0957 311.01 59.248 311.4 59.9512C311.791 60.6348 312.436 60.9766 313.334 60.9766Z" fill="#6B7280"/>
<path d="M161.623 75.04C167.623 75.04 172.143 76.2 175.183 78.52C178.223 80.8 179.743 84.16 179.743 88.6C179.743 90.8 179.343 93.34 178.543 96.22C177.223 100.86 175.443 104.54 173.203 107.26C170.963 109.98 168.003 111.96 164.323 113.2C160.683 114.44 156.003 115.04 150.283 115L133.963 114.94C133.123 114.94 132.483 114.8 132.043 114.52C131.563 114.24 131.323 113.86 131.323 113.38C131.323 113.14 131.383 112.88 131.503 112.6C131.623 112.24 131.803 111.98 132.043 111.82C132.243 111.66 132.563 111.44 133.003 111.16C133.643 110.8 134.143 110.4 134.503 109.96C134.903 109.52 135.243 108.82 135.523 107.86L142.843 82.06C143.003 81.54 143.083 81.04 143.083 80.56C143.083 80.12 143.003 79.76 142.843 79.48C142.723 79.16 142.543 78.8 142.303 78.4C141.943 77.88 141.763 77.46 141.763 77.14C141.763 77.02 141.803 76.8 141.883 76.48C142.043 75.96 142.383 75.6 142.903 75.4C143.463 75.16 144.303 75.04 145.423 75.04H161.623ZM163.183 94.9C164.223 91.14 164.743 88.18 164.743 86.02C164.743 83.9 164.303 82.44 163.423 81.64C162.543 80.84 161.283 80.44 159.643 80.44H158.323L150.223 109.6H151.663C153.503 109.6 155.043 109.22 156.283 108.46C157.563 107.66 158.743 106.22 159.823 104.14C160.903 102.02 162.023 98.94 163.183 94.9ZM199.57 82.96C204.65 82.96 208.33 83.78 210.61 85.42C212.89 87.02 214.03 89.08 214.03 91.6C214.03 92.36 213.95 93.06 213.79 93.7C213.19 96.34 211.51 98.24 208.75 99.4C206.03 100.52 202.81 101.08 199.09 101.08C197.21 101.08 195.45 100.96 193.81 100.72C193.77 102.8 194.33 104.26 195.49 105.1C196.65 105.94 198.27 106.36 200.35 106.36C201.31 106.36 202.23 106.26 203.11 106.06C203.99 105.82 205.11 105.48 206.47 105.04C207.59 104.64 208.35 104.44 208.75 104.44C209.19 104.44 209.41 104.7 209.41 105.22C209.45 106.62 208.93 108.1 207.85 109.66C206.77 111.18 205.17 112.48 203.05 113.56C200.93 114.64 198.37 115.18 195.37 115.18C190.93 115.18 187.29 114.06 184.45 111.82C181.61 109.58 180.19 106.32 180.19 102.04C180.19 100.84 180.35 99.44 180.67 97.84C181.67 92.92 183.85 89.22 187.21 86.74C190.61 84.22 194.73 82.96 199.57 82.96ZM194.23 97.12C194.39 97.16 194.61 97.18 194.89 97.18C196.57 97.18 197.85 96.4 198.73 94.84C199.61 93.28 200.03 91.54 199.99 89.62C199.95 88.5 199.63 87.94 199.03 87.94C198.59 87.94 198.07 88.3 197.47 89.02C196.87 89.7 196.27 90.74 195.67 92.14C195.11 93.54 194.63 95.2 194.23 97.12ZM232.545 82.72C235.865 82.72 238.725 83.02 241.125 83.62C243.565 84.22 245.425 85.06 246.705 86.14C248.025 87.22 248.685 88.44 248.685 89.8C248.685 91.2 248.125 92.34 247.005 93.22C245.925 94.1 244.405 94.54 242.445 94.54C240.445 94.54 238.745 94.04 237.345 93.04C235.985 92.04 235.305 90.78 235.305 89.26C235.305 88.74 235.385 88.24 235.545 87.76C234.825 87.56 234.185 87.46 233.625 87.46C232.625 87.46 231.785 87.7 231.105 88.18C230.465 88.66 230.165 89.34 230.205 90.22C230.205 91.26 230.725 92.14 231.765 92.86C232.805 93.58 234.485 94.48 236.805 95.56C238.805 96.44 240.445 97.26 241.725 98.02C243.045 98.74 244.145 99.66 245.025 100.78C245.945 101.9 246.405 103.22 246.405 104.74C246.405 105.06 246.325 105.66 246.165 106.54C245.525 109.22 243.745 111.34 240.825 112.9C237.905 114.46 234.065 115.24 229.305 115.24C223.945 115.24 219.685 114.52 216.525 113.08C213.405 111.64 211.845 109.66 211.845 107.14C211.845 105.42 212.365 104.12 213.405 103.24C214.445 102.36 215.825 101.92 217.545 101.92C219.545 101.92 221.245 102.54 222.645 103.78C224.085 105.02 224.805 106.6 224.805 108.52C224.805 109.04 224.745 109.58 224.625 110.14C225.585 110.38 226.505 110.5 227.385 110.5C228.425 110.5 229.285 110.22 229.965 109.66C230.645 109.1 230.985 108.32 230.985 107.32C230.945 106.4 230.485 105.62 229.605 104.98C228.725 104.3 227.325 103.5 225.405 102.58C223.605 101.74 222.125 100.96 220.965 100.24C219.805 99.48 218.805 98.54 217.965 97.42C217.165 96.3 216.765 94.98 216.765 93.46C216.765 90.18 218.125 87.58 220.845 85.66C223.605 83.7 227.505 82.72 232.545 82.72ZM264.151 83.26C266.471 83.26 268.171 83.7 269.251 84.58C270.331 85.46 270.871 86.66 270.871 88.18C270.871 89.1 270.731 89.98 270.451 90.82L264.931 108.76C264.811 109.24 264.751 109.66 264.751 110.02C264.751 110.54 264.851 110.96 265.051 111.28C265.251 111.56 265.531 111.84 265.891 112.12C266.171 112.4 266.371 112.64 266.491 112.84C266.611 113 266.631 113.22 266.551 113.5C266.351 114.02 265.951 114.4 265.351 114.64C264.751 114.88 263.831 115 262.591 115H248.911C247.871 115 247.111 114.84 246.631 114.52C246.151 114.16 245.991 113.7 246.151 113.14C246.311 112.66 246.731 112.24 247.411 111.88C248.011 111.56 248.511 111.18 248.911 110.74C249.311 110.3 249.651 109.6 249.931 108.64L255.151 91.3C255.271 90.94 255.331 90.64 255.331 90.4C255.331 89.96 255.231 89.62 255.031 89.38C254.831 89.1 254.531 88.82 254.131 88.54C253.731 88.22 253.451 87.94 253.291 87.7C253.131 87.46 253.111 87.14 253.231 86.74C253.471 85.82 254.731 85.02 257.011 84.34C259.291 83.62 261.671 83.26 264.151 83.26ZM268.171 70C269.731 70 271.031 70.52 272.071 71.56C273.111 72.56 273.631 73.8 273.631 75.28C273.631 76.32 273.351 77.34 272.791 78.34C272.271 79.34 271.511 80.16 270.511 80.8C269.551 81.4 268.471 81.7 267.271 81.7C265.751 81.7 264.471 81.2 263.431 80.2C262.431 79.16 261.911 77.88 261.871 76.36C261.871 75.36 262.131 74.38 262.651 73.42C263.171 72.42 263.911 71.6 264.871 70.96C265.831 70.32 266.931 70 268.171 70ZM306.704 73.48C307.984 73.48 309.224 73.76 310.424 74.32C311.664 74.84 312.664 75.58 313.424 76.54C314.224 77.46 314.624 78.46 314.624 79.54C314.624 81.9 313.024 83.08 309.824 83.08C308.904 83.08 308.184 83.02 307.664 82.9C307.184 82.74 306.604 82.5 305.924 82.18C305.804 82.46 305.744 82.86 305.744 83.38C305.744 84.02 305.844 84.78 306.044 85.66C306.284 86.54 306.564 87.36 306.884 88.12C307.724 89.36 308.144 90.84 308.144 92.56C308.144 93.32 308.044 94.24 307.844 95.32C307.364 97.4 306.304 99.3 304.664 101.02C303.064 102.74 300.984 104.1 298.424 105.1C295.904 106.06 293.124 106.54 290.084 106.54C287.764 106.54 285.584 106.38 283.544 106.06C282.944 106.58 282.644 107.22 282.644 107.98C282.644 108.5 282.884 108.94 283.364 109.3C283.844 109.62 284.644 109.78 285.764 109.78H294.764C297.844 109.78 300.244 110.32 301.964 111.4C303.684 112.44 304.544 113.94 304.544 115.9C304.544 116.62 304.424 117.36 304.184 118.12C303.704 119.68 302.604 121.12 300.884 122.44C299.204 123.8 296.824 124.9 293.744 125.74C290.664 126.58 286.924 127 282.524 127C278.604 127 275.284 126.66 272.564 125.98C269.844 125.3 267.824 124.36 266.504 123.16C265.144 122 264.464 120.7 264.464 119.26C264.464 118.94 264.544 118.46 264.704 117.82C265.064 116.66 265.884 115.72 267.164 115C268.404 114.24 270.464 113.74 273.344 113.5C272.384 112.58 271.904 111.48 271.904 110.2C271.904 109.76 271.964 109.3 272.084 108.82C272.724 106.74 274.604 105.2 277.724 104.2C274.724 102.56 273.224 100.16 273.224 97C273.224 96.12 273.344 95.2 273.584 94.24C274.064 92.16 275.124 90.28 276.764 88.6C278.404 86.88 280.504 85.52 283.064 84.52C285.624 83.52 288.424 83.02 291.464 83.02C296.224 83.02 299.964 83.64 302.684 84.88C302.084 83.96 301.604 82.98 301.244 81.94C300.924 80.86 300.764 79.88 300.764 79C300.764 77.48 301.244 76.18 302.204 75.1C303.204 74.02 304.704 73.48 306.704 73.48ZM293.684 94.78C294.324 92.74 294.644 91.18 294.644 90.1C294.644 88.74 294.064 88.06 292.904 88.06C291.904 88.06 291.024 88.56 290.264 89.56C289.544 90.52 288.804 92.26 288.044 94.78C287.404 96.86 287.084 98.44 287.084 99.52C287.084 100.84 287.644 101.5 288.764 101.5C289.764 101.5 290.644 101 291.404 100C292.164 99 292.924 97.26 293.684 94.78ZM281.744 115.84C280.624 115.84 279.604 115.78 278.684 115.66C278.204 116.26 277.964 117.06 277.964 118.06C278.004 119.06 278.404 119.78 279.164 120.22C279.964 120.66 281.184 120.88 282.824 120.88C284.824 120.88 286.444 120.58 287.684 119.98C288.964 119.38 289.604 118.52 289.604 117.4C289.604 116.92 289.424 116.54 289.064 116.26C288.704 115.98 288.184 115.84 287.504 115.84H281.744ZM346.742 106.72C346.662 106.88 346.622 107.12 346.622 107.44C346.622 107.72 346.682 107.94 346.802 108.1C346.962 108.26 347.162 108.34 347.402 108.34C347.882 108.34 348.282 108.14 348.602 107.74C348.962 107.3 349.202 107.08 349.322 107.08C349.522 107.08 349.682 107.22 349.802 107.5C349.922 107.74 349.982 108.04 349.982 108.4C350.022 109.56 349.642 110.7 348.842 111.82C348.042 112.9 346.862 113.8 345.302 114.52C343.782 115.2 341.942 115.54 339.782 115.54C337.142 115.54 335.042 114.94 333.482 113.74C331.922 112.5 331.122 110.86 331.082 108.82C331.082 107.34 331.442 105.68 332.162 103.84L335.462 95.2C335.662 94.68 335.762 94.26 335.762 93.94C335.762 93.42 335.582 93.02 335.222 92.74C334.902 92.42 334.502 92.26 334.022 92.26C333.142 92.26 332.302 92.68 331.502 93.52C330.702 94.32 330.122 95.32 329.762 96.52L326.042 108.76C325.882 109.2 325.802 109.62 325.802 110.02C325.802 110.5 325.902 110.9 326.102 111.22C326.302 111.5 326.582 111.8 326.942 112.12C327.222 112.36 327.422 112.58 327.542 112.78C327.662 112.98 327.682 113.22 327.602 113.5C327.442 114.02 327.062 114.4 326.462 114.64C325.862 114.88 324.922 115 323.642 115H309.962C308.922 115 308.182 114.84 307.742 114.52C307.262 114.16 307.082 113.7 307.202 113.14C307.362 112.66 307.782 112.24 308.462 111.88C309.062 111.56 309.562 111.18 309.962 110.74C310.362 110.3 310.702 109.6 310.982 108.64L316.322 91.3C316.402 91.1 316.442 90.82 316.442 90.46C316.442 90.02 316.342 89.68 316.142 89.44C315.982 89.2 315.702 88.9 315.302 88.54C314.902 88.22 314.622 87.94 314.462 87.7C314.302 87.46 314.282 87.14 314.402 86.74C314.642 85.82 315.902 85.02 318.182 84.34C320.462 83.62 322.842 83.26 325.322 83.26C327.322 83.26 328.902 83.82 330.062 84.94C331.222 86.02 331.742 87.54 331.622 89.5C333.262 87.14 335.002 85.52 336.842 84.64C338.682 83.72 340.682 83.26 342.842 83.26C345.282 83.26 347.242 84 348.722 85.48C350.242 86.96 351.002 88.88 351.002 91.24C351.002 92.48 350.802 93.7 350.402 94.9L346.742 106.72ZM372.291 82.72C375.611 82.72 378.471 83.02 380.871 83.62C383.311 84.22 385.171 85.06 386.451 86.14C387.771 87.22 388.431 88.44 388.431 89.8C388.431 91.2 387.871 92.34 386.751 93.22C385.671 94.1 384.151 94.54 382.191 94.54C380.191 94.54 378.491 94.04 377.091 93.04C375.731 92.04 375.051 90.78 375.051 89.26C375.051 88.74 375.131 88.24 375.291 87.76C374.571 87.56 373.931 87.46 373.371 87.46C372.371 87.46 371.531 87.7 370.851 88.18C370.211 88.66 369.911 89.34 369.951 90.22C369.951 91.26 370.471 92.14 371.511 92.86C372.551 93.58 374.231 94.48 376.551 95.56C378.551 96.44 380.191 97.26 381.471 98.02C382.791 98.74 383.891 99.66 384.771 100.78C385.691 101.9 386.151 103.22 386.151 104.74C386.151 105.06 386.071 105.66 385.911 106.54C385.271 109.22 383.491 111.34 380.571 112.9C377.651 114.46 373.811 115.24 369.051 115.24C363.691 115.24 359.431 114.52 356.271 113.08C353.151 111.64 351.591 109.66 351.591 107.14C351.591 105.42 352.111 104.12 353.151 103.24C354.191 102.36 355.571 101.92 357.291 101.92C359.291 101.92 360.991 102.54 362.391 103.78C363.831 105.02 364.551 106.6 364.551 108.52C364.551 109.04 364.491 109.58 364.371 110.14C365.331 110.38 366.251 110.5 367.131 110.5C368.171 110.5 369.031 110.22 369.711 109.66C370.391 109.1 370.731 108.32 370.731 107.32C370.691 106.4 370.231 105.62 369.351 104.98C368.471 104.3 367.071 103.5 365.151 102.58C363.351 101.74 361.871 100.96 360.711 100.24C359.551 99.48 358.551 98.54 357.711 97.42C356.911 96.3 356.511 94.98 356.511 93.46C356.511 90.18 357.871 87.58 360.591 85.66C363.351 83.7 367.251 82.72 372.291 82.72Z" fill="black"/>
</svg>
